<?xml version="1.0" standalone="no"?>
<!DOCTYPE svg PUBLIC "-//W3C//DTD SVG 20010904//EN"
 "http://www.w3.org/TR/2001/REC-SVG-20010904/DTD/svg10.dtd">
<svg version="1.0" xmlns="http://www.w3.org/2000/svg"
 width="2000.000000pt" height="2000.000000pt" viewBox="0 0 2000.000000 2000.000000"
 preserveAspectRatio="xMidYMid meet">

<g transform="translate(0.000000,2000.000000) scale(0.100000,-0.100000)"
fill="#000000" stroke="none">
<path d="M6162 16842 c-203 -73 -406 -355 -467 -647 -20 -97 -20 -283 0 -360
21 -82 74 -157 146 -210 77 -57 98 -84 107 -137 7 -38 14 -47 61 -78 44 -28
50 -35 35 -41 -12 -4 -32 1 -52 12 -18 10 -37 19 -41 19 -10 0 -14 -95 -5
-132 4 -21 22 -38 74 -68 38 -22 70 -40 72 -40 2 0 1 34 0 77 -3 71 -3 75 13
60 55 -56 212 36 265 156 21 47 15 73 -9 36 -30 -48 -109 -117 -155 -134 -71
-27 -96 -15 -112 55 -13 57 -13 57 -145 170 -228 195 -132 768 177 1060 92 87
185 133 271 134 35 1 63 2 63 3 0 0 -30 18 -67 38 -85 47 -153 54 -231 27z"/>
<path d="M14546 16749 c-93 -12 -237 -62 -317 -109 -169 -100 -264 -234 -305
-430 -15 -74 -23 -218 -15 -295 2 -22 -6 -98 -18 -170 -37 -220 -44 -450 -20
-622 7 -46 16 -83 21 -83 5 0 7 -4 4 -9 -12 -19 59 -185 75 -176 5 4 6 0 4 -8
-7 -17 52 -70 67 -61 6 4 8 3 5 -3 -16 -25 128 -57 302 -68 47 -3 86 -6 87 -8
2 -1 3 -54 4 -117 0 -88 -4 -132 -20 -190 -29 -101 -29 -180 0 -250 12 -30 30
-76 39 -102 l17 -47 18 29 c29 50 69 92 128 136 31 23 54 45 50 49 -4 5 -1 5
7 0 7 -4 16 -4 20 1 5 8 96 55 111 59 30 7 49 18 44 27 -4 7 -2 8 5 4 17 -11
120 51 169 102 48 51 69 108 76 217 5 74 14 115 25 114 3 0 22 -32 41 -72 40
-81 149 -205 171 -192 7 5 10 4 5 -3 -3 -6 1 -17 9 -26 14 -14 14 -23 -4 -98
-25 -107 -52 -167 -106 -242 -86 -120 -278 -286 -331 -286 -13 0 -38 15 -57
35 l-34 35 -69 -16 c-95 -22 -249 -15 -325 14 -107 42 -189 143 -189 235 0 31
-3 37 -21 37 -32 0 -59 -18 -126 -83 -34 -34 -65 -58 -69 -54 -10 10 61 207
108 301 22 44 56 100 75 124 19 23 33 42 31 42 -2 0 -43 5 -91 10 -231 24
-434 -50 -557 -202 -63 -79 -163 -248 -351 -596 -257 -475 -269 -495 -313
-542 -84 -88 -98 -114 -94 -167 2 -27 6 -55 9 -63 8 -27 -44 -24 -71 5 -13 14
-28 25 -34 25 -6 0 -4 -5 4 -11 13 -9 13 -10 0 -6 -8 2 -14 9 -13 15 3 15 -72
73 -82 64 -5 -4 -5 -2 -1 5 7 13 -31 40 -49 34 -5 -1 -7 1 -3 5 8 8 -9 34 -22
34 -11 0 -28 -112 -86 -570 -39 -305 -39 -304 -24 -295 9 5 11 4 6 -3 -8 -13
72 -94 85 -86 5 3 7 -1 4 -8 -7 -17 61 -71 77 -62 6 4 8 3 5 -3 -6 -10 53 -53
78 -57 6 -1 20 -7 32 -14 38 -21 164 -44 178 -32 10 8 15 8 20 -1 14 -22 93
-3 151 35 49 33 58 36 89 27 51 -14 99 3 146 52 22 23 97 130 167 237 l127
194 9 -194 c8 -169 6 -228 -13 -435 -27 -302 -27 -368 -1 -420 13 -25 20 -59
20 -96 0 -85 14 -113 76 -154 155 -103 440 -186 799 -232 199 -26 744 -25 925
0 163 23 289 50 375 79 64 21 70 26 78 58 5 19 7 74 4 122 -3 69 -2 88 10 92
8 3 24 27 35 53 30 66 28 173 -8 433 -35 260 -40 559 -11 765 22 161 24 166
42 141 8 -10 19 -15 26 -10 8 4 10 3 5 -5 -17 -26 192 -182 230 -171 4 1 10
-3 14 -9 10 -17 134 -24 174 -11 56 18 139 131 120 162 -4 6 -3 8 3 5 10 -6
32 58 47 138 4 17 9 41 12 55 13 64 16 229 5 328 -28 237 -120 583 -218 817
-34 81 -97 168 -143 199 -38 25 -142 62 -190 68 -19 2 -38 26 -91 115 -36 62
-70 109 -74 105 -5 -4 -5 -2 -1 5 7 13 -24 84 -35 78 -3 -3 -7 1 -6 8 1 32 -4
48 -13 42 -6 -4 -7 1 -3 11 5 13 3 15 -7 9 -9 -5 -11 -4 -6 3 4 7 -2 42 -13
79 -11 38 -25 111 -31 163 -16 137 -40 212 -116 363 -13 27 -24 66 -24 87 0
47 -13 83 -47 133 -16 23 -32 36 -40 33 -8 -3 -11 -2 -8 3 3 5 -1 11 -9 13
-11 2 -7 21 20 85 48 116 64 185 64 280 0 107 -25 177 -86 238 -25 25 -50 45
-55 45 -5 0 -9 18 -9 40 0 101 -73 236 -180 333 -164 148 -454 222 -734 186z
m42 -1669 c4 -24 -55 -78 -94 -86 -46 -8 -52 0 -30 40 28 53 116 86 124 46z
m1140 -1831 c-3 -8 -7 -3 -11 10 -4 17 -3 21 5 13 5 -5 8 -16 6 -23z m785
-626 c-3 -7 -6 -13 -8 -13 -2 0 -5 6 -8 13 -3 8 1 14 8 14 7 0 11 -6 8 -14z"/>
<path d="M15702 16738 c-12 -16 -52 -148 -52 -175 0 -10 7 -28 15 -39 8 -10
15 -32 15 -49 1 -34 15 -56 48 -74 26 -14 75 -7 92 14 6 7 27 16 46 20 30 5
42 17 85 82 27 41 49 85 49 97 -1 19 -2 18 -15 -6 -51 -93 -297 15 -271 118 7
27 3 30 -12 12z"/>
<path d="M6209 16258 c-16 -26 -19 -44 -15 -82 3 -27 10 -54 15 -59 13 -13 5
-31 -47 -111 l-45 -68 -24 31 c-33 42 -67 41 -93 -1 -24 -40 -26 -81 -4 -102
19 -20 41 -20 75 -2 l26 13 16 -71 c20 -84 36 -214 38 -309 2 -68 13 -92 31
-66 16 25 -7 276 -38 409 l-15 66 43 65 c24 36 48 74 54 85 11 18 13 18 42 2
16 -10 42 -18 57 -18 20 0 25 -4 21 -17 -3 -10 -12 -58 -21 -108 -35 -212 -47
-421 -22 -413 8 3 16 52 24 154 12 157 25 256 43 339 9 39 18 54 43 70 41 26
77 90 77 138 0 32 -3 37 -23 37 -31 0 -50 -22 -80 -95 -23 -55 -27 -60 -54
-57 -15 2 -39 10 -51 19 -19 12 -22 20 -17 41 14 51 20 97 17 120 -5 35 -48
29 -73 -10z m41 -35 c0 -29 -12 -63 -21 -63 -10 0 -12 63 -2 73 12 12 23 7 23
-10z m210 -45 c0 -19 -38 -78 -51 -78 -12 0 -4 34 17 68 16 24 34 29 34 10z
m-406 -244 c21 -21 20 -31 -5 -39 -27 -9 -43 7 -34 34 8 25 18 26 39 5z"/>
<path d="M8845 15556 c-106 -61 -110 -65 -110 -97 0 -29 4 -34 26 -37 16 -2
52 11 91 32 36 20 68 36 71 36 4 0 7 -37 7 -83 0 -87 8 -107 45 -107 40 0 45
17 45 160 0 190 -6 194 -175 96z"/>
<path d="M8055 15100 c-144 -83 -243 -146 -249 -159 -7 -16 -5 -26 9 -41 10
-11 23 -20 28 -20 13 0 465 257 490 278 31 27 16 83 -22 82 -9 -1 -124 -63
-256 -140z"/>
<path d="M8948 14966 c-15 -11 -18 -30 -18 -129 l0 -115 -99 -56 c-54 -31
-101 -65 -103 -74 -7 -24 1 -41 24 -53 16 -9 37 0 121 47 156 87 147 73 147
230 0 126 -1 134 -22 148 -27 19 -28 19 -50 2z"/>
<path d="M6230 14945 c-14 -17 -19 -273 -6 -294 9 -15 63 -14 72 1 9 14 9 257
0 286 -9 26 -47 30 -66 7z"/>
<path d="M7245 14633 c-71 -41 -161 -94 -200 -116 -145 -84 -165 -98 -165
-121 0 -26 18 -46 41 -46 10 0 69 30 131 66 62 37 133 78 158 92 197 109 220
126 220 158 0 21 -26 45 -47 44 -4 -1 -66 -35 -138 -77z"/>
<path d="M11103 14515 c-13 -9 -26 -35 -34 -67 -10 -43 -23 -64 -71 -111 -32
-32 -59 -64 -60 -70 -2 -23 -8 -212 -7 -262 0 -53 41 -190 64 -215 7 -8 14
-18 14 -23 1 -13 33 -72 43 -78 5 -3 9 -8 8 -10 -4 -9 24 -59 32 -59 5 0 7 -4
4 -8 -2 -4 8 -22 23 -40 l28 -32 6 63 c3 34 13 114 22 177 8 63 22 167 30 230
8 63 22 172 32 243 14 107 14 133 3 167 -7 22 -17 37 -23 33 -6 -4 -8 0 -4 10
4 10 0 20 -11 26 -9 6 -12 11 -7 11 15 1 -38 29 -55 30 -9 0 -25 -7 -37 -15z
m-90 -690 c-3 -9 -8 -14 -10 -11 -3 3 -2 9 2 15 9 16 15 13 8 -4z"/>
<path d="M8280 14349 c-58 -33 -111 -68 -117 -77 -16 -20 -18 -254 -3 -283 11
-19 35 -24 64 -13 13 5 16 26 16 125 l0 119 76 42 c129 72 152 98 118 132 -24
24 -41 19 -154 -45z"/>
<path d="M6231 14276 c-12 -14 -17 -278 -6 -296 13 -21 57 -8 164 53 114 64
138 90 111 122 -20 24 -51 18 -122 -24 -41 -24 -68 -35 -70 -27 -3 6 -6 47 -7
91 -2 46 -8 83 -14 87 -19 12 -44 9 -56 -6z"/>
<path d="M8450 13986 c0 -2 7 -7 16 -10 8 -3 12 -2 9 4 -6 10 -25 14 -25 6z"/>
<path d="M7300 13782 c-118 -69 -138 -93 -110 -128 19 -22 37 -17 112 26 39
22 72 40 74 40 2 0 4 -36 4 -79 0 -62 4 -84 19 -102 16 -21 22 -22 45 -11 l26
12 0 143 c0 146 -5 168 -39 167 -9 -1 -68 -31 -131 -68z"/>
<path d="M8855 13785 c-126 -73 -142 -90 -119 -123 21 -30 36 -28 120 19 l74
40 0 -88 c0 -95 8 -113 47 -113 35 0 43 30 43 169 0 123 -1 131 -22 145 -12 9
-25 16 -28 15 -3 0 -54 -29 -115 -64z"/>
<path d="M8161 13611 c-14 -25 -14 -256 -1 -282 21 -38 47 -28 233 85 64 39
73 65 32 92 -24 16 -27 15 -94 -25 -38 -22 -74 -41 -80 -41 -6 0 -11 37 -13
93 l-3 92 -32 3 c-23 2 -34 -2 -42 -17z"/>
<path d="M6715 13444 c-60 -36 -113 -71 -117 -77 -4 -7 -8 -71 -8 -143 0 -144
5 -158 57 -152 l28 3 5 123 5 124 94 54 c52 30 97 57 99 59 10 10 3 58 -9 66
-25 16 -43 9 -154 -57z"/>
<path d="M8947 13172 c-14 -15 -17 -40 -17 -130 l0 -111 -57 -33 c-32 -18 -76
-42 -97 -54 -50 -27 -63 -57 -35 -85 26 -26 34 -23 170 57 l109 65 0 139 c0
132 -1 140 -22 154 -28 20 -31 20 -51 -2z"/>
<path d="M7396 13154 c-14 -13 -16 -50 -16 -245 0 -140 4 -238 10 -250 12 -21
50 -25 68 -7 9 9 12 79 12 253 0 174 -3 244 -12 253 -17 17 -44 15 -62 -4z"/>
<path d="M6600 12711 c-5 -11 -10 -68 -10 -128 l-1 -108 -99 -58 c-81 -46
-100 -62 -100 -80 0 -27 17 -47 41 -47 18 0 201 101 232 128 15 13 17 34 17
152 0 92 -4 140 -12 148 -18 18 -56 14 -68 -7z"/>
<path d="M8280 12559 c-58 -33 -111 -68 -117 -77 -16 -20 -18 -254 -3 -283 11
-19 45 -25 67 -11 8 5 13 47 15 126 l3 119 82 46 c122 69 141 91 107 125 -24
25 -42 20 -154 -45z"/>
<path d="M7390 12261 c-6 -12 -10 -109 -10 -245 0 -213 1 -227 20 -246 24 -24
34 -25 54 -4 14 13 16 51 16 259 0 212 -2 244 -16 249 -29 11 -53 6 -64 -13z"/>
<path d="M5840 12045 c-106 -62 -200 -121 -206 -130 -20 -27 1 -65 37 -65 26
0 413 229 423 250 11 23 -17 61 -43 59 -9 0 -104 -52 -211 -114z"/>
<path d="M4195 11990 c-112 -66 -132 -87 -115 -119 15 -30 44 -26 116 14 34
19 67 35 73 35 7 0 11 -30 11 -83 0 -51 5 -88 12 -95 18 -18 56 -14 68 7 15
28 13 274 -2 289 -23 23 -63 11 -163 -48z"/>
<path d="M8173 11835 c-15 -11 -19 -32 -23 -131 l-5 -118 -87 -50 c-106 -62
-112 -68 -104 -100 11 -44 39 -41 139 15 50 29 104 61 120 72 l28 19 -3 145
c-3 139 -4 146 -25 154 -13 5 -28 3 -40 -6z"/>
<path d="M7740 11730 c-9 -6 -10 -10 -3 -10 6 0 15 5 18 10 8 12 4 12 -15 0z"/>
<path d="M3616 11656 c-59 -35 -112 -70 -117 -77 -14 -22 -11 -273 3 -287 17
-17 65 -15 72 4 3 9 6 64 6 124 l0 108 95 56 c106 64 126 87 99 117 -9 10 -24
19 -33 18 -9 0 -65 -28 -125 -63z"/>
<path d="M5085 11609 c-104 -61 -199 -119 -209 -129 -18 -17 -18 -22 -6 -45 7
-14 22 -25 33 -25 10 0 111 53 223 117 183 105 204 119 204 143 0 29 -17 50
-39 49 -9 0 -101 -50 -206 -110z"/>
<path d="M7390 11381 c-5 -11 -10 -75 -10 -143 0 -186 11 -193 172 -99 127 74
135 82 120 116 -16 35 -49 32 -119 -10 -32 -19 -64 -35 -70 -35 -9 0 -13 23
-13 83 0 51 -5 88 -12 95 -18 18 -56 14 -68 -7z"/>
<path d="M4287 11383 c-4 -3 -7 -70 -7 -148 0 -198 2 -199 180 -93 88 53 106
67 108 90 3 22 -2 30 -22 39 -21 10 -33 6 -96 -30 -40 -22 -74 -41 -76 -41 -2
0 -4 37 -4 83 0 51 -5 88 -12 95 -13 13 -60 16 -71 5z"/>
<path d="M3507 10912 c-15 -16 -17 -49 -17 -253 0 -247 2 -259 45 -259 43 0
45 12 45 267 l0 243 -26 10 c-32 12 -28 13 -47 -8z"/>
<path d="M13870 10675 c0 -17 55 -87 103 -131 80 -74 206 -138 372 -191 44
-13 83 -28 87 -32 5 -4 22 -79 38 -166 17 -88 39 -203 50 -255 10 -52 26 -135
35 -185 9 -49 23 -119 31 -155 64 -296 72 -371 89 -815 9 -236 17 -463 17
-502 1 -40 4 -71 6 -68 6 6 15 118 42 559 12 187 22 342 22 345 1 6 -3 35 -28
166 -61 331 -141 779 -174 970 -24 141 -36 196 -47 204 -4 4 -42 13 -83 20
-170 27 -358 99 -467 178 -80 58 -93 66 -93 58z"/>
<path d="M6925 10270 c-3 -6 1 -7 9 -4 18 7 21 14 7 14 -6 0 -13 -4 -16 -10z"/>
<path d="M4201 10203 c-61 -36 -115 -72 -120 -81 -13 -25 5 -62 30 -62 12 0
55 18 95 41 l74 40 0 -88 c0 -91 8 -113 41 -113 42 0 49 25 49 164 0 186 -10
192 -169 99z"/>
<path d="M5720 10172 c-104 -61 -115 -70 -115 -96 0 -54 27 -56 115 -8 l80 43
0 -85 c0 -64 4 -88 16 -100 18 -19 28 -20 55 -6 17 10 19 23 19 155 0 132 -2
145 -19 155 -11 5 -23 10 -28 9 -4 0 -60 -30 -123 -67z"/>
<path d="M3507 10032 c-14 -15 -17 -42 -17 -149 0 -113 2 -132 18 -146 10 -10
23 -17 28 -17 5 0 56 27 113 60 57 33 107 60 111 60 12 0 30 49 24 65 -13 33
-52 29 -123 -14 -38 -23 -72 -41 -75 -41 -3 0 -6 40 -6 90 0 78 -2 91 -19 100
-27 14 -35 13 -54 -8z"/>
<path d="M5238 9892 c-93 -44 -379 -219 -384 -235 -7 -21 21 -57 44 -57 23 0
402 223 413 243 11 19 -2 51 -24 60 -8 3 -30 -2 -49 -11z"/>
<path d="M4292 9578 c-17 -17 -17 -279 0 -296 21 -21 47 -13 153 49 118 69
130 79 121 113 -10 40 -34 39 -112 -4 -40 -22 -76 -40 -79 -40 -3 0 -5 34 -5
76 0 41 -5 84 -10 95 -12 21 -50 25 -68 7z"/>
<path d="M5812 9548 c-9 -9 -12 -77 -12 -244 0 -198 2 -235 16 -248 18 -19 45
-21 62 -4 9 9 12 78 12 248 0 248 -2 260 -45 260 -12 0 -26 -5 -33 -12z"/>
<path d="M5822 8684 c-20 -14 -22 -23 -22 -129 l0 -113 -97 -59 c-101 -60
-120 -85 -93 -119 20 -23 40 -17 160 54 l115 68 0 143 c0 134 -1 145 -20 157
-18 12 -24 11 -43 -2z"/>
<path d="M5180 8082 l-115 -69 -3 -137 c-3 -147 2 -166 43 -166 37 0 44 21 47
140 l3 115 89 50 c104 59 123 80 100 113 -8 12 -23 22 -32 22 -9 0 -69 -31
-132 -68z"/>
<path d="M6194 7763 c-102 -53 -174 -101 -181 -119 -8 -22 9 -48 35 -52 12 -2
51 13 87 33 36 21 68 35 71 32 3 -3 6 -39 7 -80 2 -78 15 -107 48 -107 37 0
44 30 41 174 -4 169 -7 173 -108 119z"/>
<path d="M5387 7699 c7 -7 15 -10 18 -7 3 3 -2 9 -12 12 -14 6 -15 5 -6 -5z"/>
<path d="M5653 7453 c-127 -74 -143 -88 -135 -125 9 -42 46 -32 188 50 135 78
139 81 139 113 0 59 -39 51 -192 -38z"/>
<path d="M5072 7348 c-17 -17 -17 -279 0 -296 22 -22 50 -13 164 54 103 60
114 69 114 95 0 18 -7 32 -20 39 -17 9 -33 4 -94 -29 -40 -23 -76 -41 -80 -41
-3 0 -6 36 -6 79 0 44 -3 86 -6 95 -7 19 -55 21 -72 4z"/>
<path d="M6229 7274 c-21 -25 -24 -260 -4 -290 18 -27 47 -31 65 -9 18 21 18
278 1 299 -17 20 -45 20 -62 0z"/>
<path d="M6359 6806 c-236 -90 -438 -378 -443 -630 l-1 -69 60 -38 c78 -49 85
-49 85 2 0 107 67 295 143 402 103 145 268 258 376 260 l51 1 -68 39 c-76 45
-143 56 -203 33z"/>
<path d="M6434 6440 c-15 -6 -23 -20 -27 -48 -5 -38 -61 -160 -111 -241 -39
-63 -97 -201 -118 -280 -12 -44 -22 -122 -25 -186 l-5 -110 47 -29 46 -29 -30
-31 c-53 -55 -84 -131 -85 -208 0 -49 4 -72 15 -84 19 -18 142 -95 146 -90 2
1 -2 17 -8 35 -39 111 73 311 173 311 22 0 22 0 3 13 -11 8 -39 24 -63 37 -36
20 -46 22 -62 12 -39 -24 -43 -16 -36 66 19 212 51 308 183 547 77 139 99 209
83 265 -5 18 -14 38 -21 46 -13 15 -72 18 -105 4z"/>
<path d="M10646 5513 c2 -10 22 -110 45 -223 22 -113 45 -209 50 -214 29 -31
-19 -145 -84 -202 -79 -69 -169 -95 -322 -95 -247 0 -504 66 -880 226 -257
109 -296 120 -440 120 -115 0 -123 -1 -186 -32 -134 -66 -180 -141 -198 -322
-13 -125 -31 -171 -88 -221 -137 -120 -383 -127 -690 -19 -249 88 -457 198
-560 298 -24 22 -43 35 -43 30 0 -21 125 -135 205 -187 99 -65 331 -180 445
-220 291 -102 559 -86 706 42 59 51 83 109 99 243 17 133 37 185 90 232 134
118 314 114 585 -11 249 -115 513 -204 705 -238 324 -56 529 -25 653 100 53
53 92 134 92 191 0 43 13 75 127 302 l64 128 -48 -7 c-106 -18 -206 3 -273 55
-52 41 -59 43 -54 24z"/>
<path d="M16360 5375 c-42 -50 -120 -104 -220 -154 -104 -52 -100 -51 -215
-85 -68 -21 -75 -24 -43 -25 62 -2 184 26 272 62 84 34 224 120 233 143 2 7 3
29 1 50 l-3 38 -25 -29z"/>
<path d="M3100 5330 c-9 -6 -10 -10 -3 -10 6 0 15 5 18 10 8 12 4 12 -15 0z"/>
<path d="M14511 5299 c-13 -5 -76 -19 -140 -30 -95 -17 -142 -20 -261 -16 -80
3 -155 8 -167 12 -14 4 -23 3 -23 -3 0 -11 82 -34 184 -53 106 -18 270 -6 414
32 37 10 42 15 42 40 0 31 -9 34 -49 18z"/>
<path d="M13605 5118 c-79 -65 -294 -170 -425 -207 -169 -49 -291 -101 -338
-145 -50 -45 -61 -84 -61 -214 0 -141 4 -151 96 -199 115 -61 265 -92 415 -86
183 8 332 51 515 149 140 74 172 83 343 94 80 5 172 16 205 25 68 18 157 58
175 80 6 8 16 63 22 124 9 106 9 113 -21 229 -17 66 -31 123 -31 126 0 3 -18
-1 -40 -9 -120 -42 -173 -50 -350 -50 -172 1 -177 1 -257 32 -45 17 -101 44
-125 60 -24 16 -47 32 -53 35 -5 3 -37 -17 -70 -44z"/>
<path d="M16265 4974 c-160 -89 -374 -137 -525 -116 -41 5 -76 9 -77 8 -1 -1
-6 -62 -12 -136 -6 -74 -27 -225 -46 -335 -77 -449 -72 -557 27 -652 75 -72
217 -102 395 -83 223 24 332 94 399 257 41 102 32 257 -31 528 l-28 120 16
100 c23 134 22 210 -4 290 -12 36 -25 65 -28 64 -3 0 -42 -20 -86 -45z"/>
</g>
</svg>
