<?xml version="1.0" encoding="UTF-8"?>
<svg xmlns="http://www.w3.org/2000/svg" xmlns:xlink="http://www.w3.org/1999/xlink" width="512" height="512" viewBox="0 0 58 58" version="1.1"><!-- Generator: Sketch 51.3 (57544) - http://www.bohemiancoding.com/sketch --><title>079 - Perfectionist</title><desc>Created with Sketch.</desc><defs/><g id="Page-1" stroke="none" stroke-width="1" fill="none" fill-rule="evenodd"><g id="079---Perfectionist" fill-rule="nonzero"><path d="M39.213,21.22 C37.943,20.57 36.672,22.5 36.672,22.5 L36.593,22.49 C36.7559709,19.4955491 36.7559709,16.4944509 36.593,13.5 C36,0.64 21.193,0 21.193,0 L18.813,0 C18.813,0 4,0.64 3.412,13.5 C3.24902908,16.4944509 3.24902908,19.4955491 3.412,22.49 L3.333,22.5 C3.333,22.5 2.063,20.57 0.792,21.22 C-0.467,21.85 0.153,27.64 0.153,27.64 C0.153,27.64 0.783,32.1 4.533,34.04 C4.373,37.76 4.093,41.14 8.153,45 C8.63533088,45.4549126 9.09266744,45.9356167 9.523,46.44 L9.523,55.96 C9.52298624,57.060676 10.4123377,57.9544966 11.513,57.96 L28.493,57.96 C29.5932713,57.9539484 30.4820166,57.060288 30.482,55.96 L30.482,46.44 C30.9126018,45.9358594 31.3699249,45.4551694 31.852,45 C35.912,41.14 35.633,37.76 35.472,34.04 C39.222,32.1 39.852,27.64 39.852,27.64 C39.852,27.64 40.472,21.85 39.213,21.22 Z" id="Shape" fill="#F0C419"/><path d="M4.593,32.14 C4.593,32.79 4.573,33.42 4.533,34.04 C0.783,32.1 0.153,27.64 0.153,27.64 C0.153,27.64 -0.467,21.85 0.792,21.22 C2.063,20.57 3.333,22.5 3.333,22.5 L3.412,22.49 C3.732,27.45 4.593,29.02 4.593,32.14 Z" id="Shape" fill="#F29C1F"/><path d="M36.593,22.49 C36.273,27.45 35.412,29.02 35.412,32.14 C35.412,32.79 35.433,33.42 35.472,34.04 C35.633,37.76 35.912,41.14 31.852,45 C31.3699249,45.4551694 30.9126018,45.9358594 30.482,46.44 C27.063,50.41 26.6,54 22.373,54 L17.633,54 C13.403,54 12.943,50.41 9.523,46.44 C9.09239821,45.9358594 8.63507511,45.4551694 8.153,45 C4.093,41.14 4.373,37.76 4.533,34.04 C4.573,33.42 4.593,32.79 4.593,32.14 C4.593,29.02 3.732,27.45 3.412,22.49 C3.24902908,19.4955491 3.24902908,16.4944509 3.412,13.5 C4,0.64 18.813,0 18.813,0 L21.193,0 C21.193,0 36.003,0.64 36.593,13.5 C36.7559709,16.4944509 36.7559709,19.4955491 36.593,22.49 Z" id="Shape" fill="#F0C419"/><path d="M39.852,27.64 C39.852,27.64 39.222,32.1 35.472,34.04 C35.433,33.42 35.412,32.79 35.412,32.14 C35.412,29.02 36.273,27.45 36.593,22.49 L36.672,22.5 C36.672,22.5 37.943,20.57 39.213,21.22 C40.472,21.85 39.852,27.64 39.852,27.64 Z" id="Shape" fill="#F29C1F"/><path d="M30.482,46.44 L30.482,55.96 C30.4820138,57.060676 29.5926623,57.9544966 28.492,57.96 L11.513,57.96 C10.4123377,57.9544966 9.52298624,57.060676 9.523,55.96 L9.523,46.44 C12.943,50.41 13.403,54 17.633,54 L22.373,54 C26.6,54 27.063,50.41 30.482,46.44 Z" id="Shape" fill="#F29C1F"/><path d="M58,7 C52,7 52,1 52,1 C52,1 52,7 46,7 L31,7 L24,15 L41,36 L58,15 L53.1,9.4 C54.1820744,7.77610428 56.053682,6.85939852 58,7 Z" id="Shape" fill="#B0D3F0"/><polygon id="Shape" fill="#4482C3" points="58 15 41 36 47 15"/><polygon id="Shape" fill="#4482C3" points="41 36 24 15 35 15"/><polygon id="Shape" fill="#2FA8CC" points="35 15 24 15 31 7"/><polygon id="Shape" fill="#67B9CC" points="41 7 35 15 31 7"/><path d="M58,15 L47,15 L50.22,8.56 C51.3226419,9.78111527 51.9537626,11.3553712 52,13 C52.0453213,11.724417 52.424623,10.483066 53.1,9.4 L58,15 Z" id="Shape" fill="#2FA8CC"/><polygon id="Shape" fill="#2FA8CC" points="47 15 35 15 41 7"/><polygon id="Shape" fill="#285680" points="47 15 41 36 35 15"/><path d="M50.22,8.56 L47,15 L41,7 L46,7 C47.5613366,6.91757547 49.0877006,7.48182377 50.22,8.56 Z" id="Shape" fill="#67B9CC"/><path d="M58,7 C56.053682,6.85939852 54.1820744,7.77610428 53.1,9.4 C52.424623,10.483066 52.0453213,11.724417 52,13 C51.9537626,11.3553712 51.3226419,9.78111527 50.22,8.56 C49.0877006,7.48182377 47.5613366,6.91757547 46,7 C52,7 52,1 52,1 C52,1 52,7 58,7 Z" id="Shape" fill="#B0D3F0"/></g></g></svg>
